<?xml version="1.0" standalone="no"?>
<!DOCTYPE svg PUBLIC "-//W3C//DTD SVG 20010904//EN"
 "http://www.w3.org/TR/2001/REC-SVG-20010904/DTD/svg10.dtd">
<svg version="1.0" xmlns="http://www.w3.org/2000/svg"
 width="700.000000pt" height="700.000000pt" viewBox="0 0 700.000000 700.000000"
 preserveAspectRatio="xMidYMid meet">
<metadata>
Created by potrace 1.14, written by Peter Selinger 2001-2017
</metadata>
<g transform="translate(0.000000,700.000000) scale(0.100000,-0.100000)"
fill="#000000" stroke="none">
<path d="M3280 6994 c-19 -2 -84 -9 -145 -14 -578 -56 -1180 -283 -1660 -625
-237 -169 -531 -446 -709 -670 -416 -521 -673 -1147 -748 -1820 -17 -154 -17
-585 0 -730 69 -588 254 -1099 567 -1570 126 -189 242 -332 410 -504 580 -595
1295 -943 2140 -1043 145 -17 576 -17 730 0 822 91 1556 447 2131 1034 203
206 348 390 487 618 274 449 432 915 499 1465 16 135 16 591 0 730 -100 846
-447 1557 -1043 2141 -555 542 -1249 874 -2029 970 -117 15 -553 27 -630 18z
m1445 -2494 l-400 -400 653 0 652 0 0 -175 0 -175 -828 0 -827 0 -255 -255
-255 -255 290 0 290 0 570 -570 570 -570 -1675 0 -1675 0 395 395 395 395
-648 0 -647 0 0 175 0 175 823 0 822 0 255 255 255 255 -285 0 -285 0 -575
575 -575 575 1680 0 1680 0 -400 -400z"/>
<path d="M2795 4360 l260 -260 390 0 390 0 252 252 c139 139 253 256 253 260
0 5 -406 8 -902 8 l-903 0 260 -260z"/>
<path d="M2860 2635 l-255 -255 900 0 900 0 -255 255 -255 255 -390 0 -390 0
-255 -255z"/>
</g>
</svg>
