<?xml version="1.0" standalone="no"?>
<!DOCTYPE svg PUBLIC "-//W3C//DTD SVG 20010904//EN"
 "http://www.w3.org/TR/2001/REC-SVG-20010904/DTD/svg10.dtd">
<svg version="1.0" xmlns="http://www.w3.org/2000/svg"
 width="700.000000pt" height="700.000000pt" viewBox="0 0 700.000000 700.000000"
 preserveAspectRatio="xMidYMid meet">
<metadata>
Created by potrace 1.14, written by Peter Selinger 2001-2017
</metadata>
<g transform="translate(0.000000,700.000000) scale(0.100000,-0.100000)"
fill="#000000" stroke="none">
<path d="M3363 6249 c-119 -38 -223 -138 -275 -267 l-23 -57 -3 -2395 c-1
-1621 1 -2411 8 -2445 64 -309 412 -454 674 -280 95 63 162 164 186 280 7 34
9 824 8 2445 l-3 2395 -23 57 c-91 226 -323 339 -549 267z"/>
<path d="M2257 5920 c-133 -34 -227 -140 -248 -282 -5 -36 -9 -945 -9 -2138 0
-1193 4 -2102 9 -2138 12 -80 40 -138 94 -192 158 -159 425 -115 524 88 l28
57 0 2185 0 2185 -22 47 c-30 66 -96 133 -159 163 -61 29 -157 40 -217 25z"/>
<path d="M4594 5921 c-97 -25 -186 -99 -227 -189 l-22 -47 0 -2185 0 -2185 28
-57 c99 -202 366 -247 524 -89 53 53 82 113 94 193 12 83 12 4193 0 4276 -24
163 -143 276 -303 287 -34 2 -77 1 -94 -4z"/>
<path d="M1325 5335 c-58 -20 -121 -93 -134 -156 -16 -72 -15 -3288 0 -3361
20 -91 115 -168 209 -168 94 0 189 77 209 168 16 74 16 3289 0 3363 -9 40 -22
62 -58 99 -65 68 -139 86 -226 55z"/>
<path d="M5501 5209 c-55 -28 -97 -86 -111 -152 -8 -37 -10 -488 -8 -1587 l3
-1536 26 -49 c15 -30 42 -62 68 -80 39 -27 50 -30 121 -30 71 0 82 3 121 30
26 18 53 50 68 80 l26 49 0 1566 0 1566 -26 49 c-37 74 -92 109 -177 113 -54
2 -76 -1 -111 -19z"/>
</g>
</svg>
